<mxfile host="app.diagrams.net" modified="2024-03-29T14:22:10.700Z" agent="Mozilla/5.0 (Windows NT 10.0; Win64; x64) AppleWebKit/537.36 (KHTML, like Gecko) Chrome/123.0.0.0 Safari/537.36 Edg/123.0.0.0" etag="BfJy6q2hwVHHv17ptArB" version="24.2.0" type="github">
  <diagram name="Page-1" id="39POl_zbDWjah6T5Sp5n">
    <mxGraphModel dx="676" dy="790" grid="1" gridSize="10" guides="1" tooltips="1" connect="1" arrows="1" fold="1" page="1" pageScale="1" pageWidth="850" pageHeight="1100" math="0" shadow="0">
      <root>
        <mxCell id="0" />
        <mxCell id="1" parent="0" />
        <mxCell id="btxd73YDLIfxVFjU9Wl3-1" value="KLIJENT" style="rounded=0;whiteSpace=wrap;html=1;" vertex="1" parent="1">
          <mxGeometry x="200" y="280" width="120" height="60" as="geometry" />
        </mxCell>
        <mxCell id="btxd73YDLIfxVFjU9Wl3-2" value="Izbor Datuma treninga" style="ellipse;whiteSpace=wrap;html=1;" vertex="1" parent="1">
          <mxGeometry x="310" y="400" width="120" height="90" as="geometry" />
        </mxCell>
        <mxCell id="btxd73YDLIfxVFjU9Wl3-3" value="Izbor vezbi" style="ellipse;whiteSpace=wrap;html=1;" vertex="1" parent="1">
          <mxGeometry x="200" y="520" width="120" height="90" as="geometry" />
        </mxCell>
        <mxCell id="btxd73YDLIfxVFjU9Wl3-4" value="Izbor trenera" style="ellipse;whiteSpace=wrap;html=1;" vertex="1" parent="1">
          <mxGeometry x="460" y="320" width="130" height="90" as="geometry" />
        </mxCell>
        <mxCell id="btxd73YDLIfxVFjU9Wl3-6" value="" style="edgeStyle=none;orthogonalLoop=1;jettySize=auto;html=1;rounded=0;exitX=1;exitY=0.5;exitDx=0;exitDy=0;entryX=-0.002;entryY=0.296;entryDx=0;entryDy=0;entryPerimeter=0;" edge="1" parent="1" source="btxd73YDLIfxVFjU9Wl3-1" target="btxd73YDLIfxVFjU9Wl3-4">
          <mxGeometry width="100" relative="1" as="geometry">
            <mxPoint x="310" y="330" as="sourcePoint" />
            <mxPoint x="410" y="330" as="targetPoint" />
            <Array as="points" />
          </mxGeometry>
        </mxCell>
        <mxCell id="btxd73YDLIfxVFjU9Wl3-7" value="Odabir" style="text;html=1;align=center;verticalAlign=middle;resizable=0;points=[];autosize=1;strokeColor=none;fillColor=none;rotation=15;" vertex="1" parent="1">
          <mxGeometry x="350" y="295" width="60" height="30" as="geometry" />
        </mxCell>
        <mxCell id="btxd73YDLIfxVFjU9Wl3-9" value="&lt;div&gt;Plan treninga&lt;/div&gt;&lt;div&gt;3000&lt;/div&gt;" style="rounded=0;whiteSpace=wrap;html=1;" vertex="1" parent="1">
          <mxGeometry x="670" y="260" width="110" height="50" as="geometry" />
        </mxCell>
        <mxCell id="btxd73YDLIfxVFjU9Wl3-10" value="Personalni&lt;div&gt;4000&lt;/div&gt;" style="rounded=0;whiteSpace=wrap;html=1;" vertex="1" parent="1">
          <mxGeometry x="670" y="390" width="110" height="50" as="geometry" />
        </mxCell>
        <mxCell id="btxd73YDLIfxVFjU9Wl3-11" value="" style="edgeStyle=none;orthogonalLoop=1;jettySize=auto;html=1;rounded=0;entryX=0;entryY=0.5;entryDx=0;entryDy=0;" edge="1" parent="1" source="btxd73YDLIfxVFjU9Wl3-4" target="btxd73YDLIfxVFjU9Wl3-9">
          <mxGeometry width="100" relative="1" as="geometry">
            <mxPoint x="510" y="290" as="sourcePoint" />
            <mxPoint x="660" y="285" as="targetPoint" />
            <Array as="points" />
          </mxGeometry>
        </mxCell>
        <mxCell id="btxd73YDLIfxVFjU9Wl3-12" value="" style="edgeStyle=none;orthogonalLoop=1;jettySize=auto;html=1;rounded=0;exitX=1.008;exitY=0.624;exitDx=0;exitDy=0;exitPerimeter=0;entryX=0;entryY=0.5;entryDx=0;entryDy=0;" edge="1" parent="1" source="btxd73YDLIfxVFjU9Wl3-4" target="btxd73YDLIfxVFjU9Wl3-10">
          <mxGeometry width="100" relative="1" as="geometry">
            <mxPoint x="570" y="390" as="sourcePoint" />
            <mxPoint x="670" y="390" as="targetPoint" />
            <Array as="points" />
          </mxGeometry>
        </mxCell>
        <mxCell id="btxd73YDLIfxVFjU9Wl3-13" value="" style="endArrow=none;html=1;rounded=0;" edge="1" parent="1">
          <mxGeometry width="50" height="50" relative="1" as="geometry">
            <mxPoint x="470" y="520" as="sourcePoint" />
            <mxPoint x="600" y="520" as="targetPoint" />
          </mxGeometry>
        </mxCell>
        <mxCell id="btxd73YDLIfxVFjU9Wl3-14" value="" style="endArrow=none;html=1;rounded=0;" edge="1" parent="1">
          <mxGeometry width="50" height="50" relative="1" as="geometry">
            <mxPoint x="470" y="540" as="sourcePoint" />
            <mxPoint x="600" y="540" as="targetPoint" />
          </mxGeometry>
        </mxCell>
        <mxCell id="btxd73YDLIfxVFjU9Wl3-15" value="Podaci o treningu" style="text;html=1;align=center;verticalAlign=middle;resizable=0;points=[];autosize=1;strokeColor=none;fillColor=none;" vertex="1" parent="1">
          <mxGeometry x="465" y="518" width="120" height="30" as="geometry" />
        </mxCell>
        <mxCell id="btxd73YDLIfxVFjU9Wl3-16" value="" style="edgeStyle=none;orthogonalLoop=1;jettySize=auto;html=1;rounded=0;entryX=-0.003;entryY=0.66;entryDx=0;entryDy=0;entryPerimeter=0;exitX=1;exitY=0.5;exitDx=0;exitDy=0;" edge="1" parent="1" source="btxd73YDLIfxVFjU9Wl3-3" target="btxd73YDLIfxVFjU9Wl3-15">
          <mxGeometry width="100" relative="1" as="geometry">
            <mxPoint x="300" y="560" as="sourcePoint" />
            <mxPoint x="400" y="560" as="targetPoint" />
            <Array as="points" />
          </mxGeometry>
        </mxCell>
        <mxCell id="btxd73YDLIfxVFjU9Wl3-17" value="" style="edgeStyle=none;orthogonalLoop=1;jettySize=auto;html=1;rounded=0;exitX=1;exitY=0.5;exitDx=0;exitDy=0;entryX=0.303;entryY=-0.007;entryDx=0;entryDy=0;entryPerimeter=0;" edge="1" parent="1" source="btxd73YDLIfxVFjU9Wl3-2" target="btxd73YDLIfxVFjU9Wl3-15">
          <mxGeometry width="100" relative="1" as="geometry">
            <mxPoint x="420" y="440" as="sourcePoint" />
            <mxPoint x="520" y="440" as="targetPoint" />
            <Array as="points" />
          </mxGeometry>
        </mxCell>
        <mxCell id="btxd73YDLIfxVFjU9Wl3-18" value="" style="edgeStyle=none;orthogonalLoop=1;jettySize=auto;html=1;rounded=0;exitX=0.577;exitY=1.024;exitDx=0;exitDy=0;exitPerimeter=0;entryX=0.637;entryY=-0.087;entryDx=0;entryDy=0;entryPerimeter=0;" edge="1" parent="1" source="btxd73YDLIfxVFjU9Wl3-4" target="btxd73YDLIfxVFjU9Wl3-15">
          <mxGeometry width="100" relative="1" as="geometry">
            <mxPoint x="490" y="440" as="sourcePoint" />
            <mxPoint x="590" y="440" as="targetPoint" />
            <Array as="points" />
          </mxGeometry>
        </mxCell>
        <mxCell id="btxd73YDLIfxVFjU9Wl3-19" value="Izvrsenje treninga" style="ellipse;whiteSpace=wrap;html=1;" vertex="1" parent="1">
          <mxGeometry x="550" y="630" width="110" height="70" as="geometry" />
        </mxCell>
        <mxCell id="btxd73YDLIfxVFjU9Wl3-20" value="Trener" style="rounded=0;whiteSpace=wrap;html=1;" vertex="1" parent="1">
          <mxGeometry x="700" y="770" width="120" height="50" as="geometry" />
        </mxCell>
        <mxCell id="btxd73YDLIfxVFjU9Wl3-21" value="" style="edgeStyle=none;orthogonalLoop=1;jettySize=auto;html=1;rounded=0;exitX=0.5;exitY=0;exitDx=0;exitDy=0;" edge="1" parent="1" source="btxd73YDLIfxVFjU9Wl3-19">
          <mxGeometry width="100" relative="1" as="geometry">
            <mxPoint x="550" y="560" as="sourcePoint" />
            <mxPoint x="580" y="540" as="targetPoint" />
            <Array as="points">
              <mxPoint x="580" y="560" />
            </Array>
          </mxGeometry>
        </mxCell>
        <mxCell id="btxd73YDLIfxVFjU9Wl3-22" value="" style="edgeStyle=none;orthogonalLoop=1;jettySize=auto;html=1;rounded=0;exitX=0.51;exitY=0.98;exitDx=0;exitDy=0;exitPerimeter=0;" edge="1" parent="1" source="btxd73YDLIfxVFjU9Wl3-15" target="btxd73YDLIfxVFjU9Wl3-19">
          <mxGeometry width="100" relative="1" as="geometry">
            <mxPoint x="450" y="560" as="sourcePoint" />
            <mxPoint x="550" y="560" as="targetPoint" />
            <Array as="points" />
          </mxGeometry>
        </mxCell>
        <mxCell id="btxd73YDLIfxVFjU9Wl3-23" value="zakazan trening" style="text;html=1;align=center;verticalAlign=middle;resizable=0;points=[];autosize=1;strokeColor=none;fillColor=none;rotation=-120;" vertex="1" parent="1">
          <mxGeometry x="480" y="580" width="110" height="30" as="geometry" />
        </mxCell>
        <mxCell id="btxd73YDLIfxVFjU9Wl3-24" value="" style="edgeStyle=none;orthogonalLoop=1;jettySize=auto;html=1;rounded=0;entryX=1.02;entryY=0.614;entryDx=0;entryDy=0;entryPerimeter=0;exitX=0.5;exitY=0;exitDx=0;exitDy=0;" edge="1" parent="1" source="btxd73YDLIfxVFjU9Wl3-20" target="btxd73YDLIfxVFjU9Wl3-19">
          <mxGeometry width="100" relative="1" as="geometry">
            <mxPoint x="680" y="720" as="sourcePoint" />
            <mxPoint x="780" y="720" as="targetPoint" />
            <Array as="points" />
          </mxGeometry>
        </mxCell>
        <mxCell id="btxd73YDLIfxVFjU9Wl3-25" value="Pomoc pri treniranju" style="text;html=1;align=center;verticalAlign=middle;resizable=0;points=[];autosize=1;strokeColor=none;fillColor=none;rotation=45;" vertex="1" parent="1">
          <mxGeometry x="650" y="690" width="130" height="30" as="geometry" />
        </mxCell>
        <mxCell id="btxd73YDLIfxVFjU9Wl3-26" value="DATUM" style="text;html=1;align=center;verticalAlign=middle;resizable=0;points=[];autosize=1;strokeColor=none;fillColor=none;rotation=45;" vertex="1" parent="1">
          <mxGeometry x="430" y="440" width="70" height="30" as="geometry" />
        </mxCell>
        <mxCell id="btxd73YDLIfxVFjU9Wl3-27" value="Vezbe" style="text;html=1;align=center;verticalAlign=middle;resizable=0;points=[];autosize=1;strokeColor=none;fillColor=none;rotation=-5;" vertex="1" parent="1">
          <mxGeometry x="350" y="520" width="60" height="30" as="geometry" />
        </mxCell>
        <mxCell id="btxd73YDLIfxVFjU9Wl3-28" value="Trener" style="text;html=1;align=center;verticalAlign=middle;resizable=0;points=[];autosize=1;strokeColor=none;fillColor=none;rotation=75;" vertex="1" parent="1">
          <mxGeometry x="525" y="440" width="60" height="30" as="geometry" />
        </mxCell>
        <mxCell id="btxd73YDLIfxVFjU9Wl3-29" value="Zavrsen trening" style="text;html=1;align=center;verticalAlign=middle;resizable=0;points=[];autosize=1;strokeColor=none;fillColor=none;rotation=60;" vertex="1" parent="1">
          <mxGeometry x="560" y="570" width="110" height="30" as="geometry" />
        </mxCell>
      </root>
    </mxGraphModel>
  </diagram>
</mxfile>
